<?xml version="1.0" encoding="UTF-8"?> <!-- Generator: Adobe Illustrator 23.0.1, SVG Export Plug-In . SVG Version: 6.00 Build 0) --> <svg xmlns="http://www.w3.org/2000/svg" xmlns:xlink="http://www.w3.org/1999/xlink" id="Слой_1" x="0px" y="0px" viewBox="0 0 116.34 37.75" style="enable-background:new 0 0 116.34 37.75;" xml:space="preserve"> <style type="text/css"> .st0{fill:url(#SVGID_1_);} .st1{fill:#424242;} .st2{fill:#DC1D74;} </style> <g> <linearGradient id="SVGID_1_" gradientUnits="userSpaceOnUse" x1="-42.829" y1="-16396.0156" x2="-42.829" y2="-16396.0156" gradientTransform="matrix(1 0 0 -1 0 -16401.4551)"> <stop offset="0" style="stop-color:#E71D73"></stop> <stop offset="1" style="stop-color:#662483"></stop> </linearGradient> <polygon class="st0" points="-42.83,-5.44 -42.83,-5.44 -42.83,-5.44 "></polygon> </g> <g> <g> <path class="st1" d="M15.88,29.37c0,0.11-0.03,0.21-0.09,0.3c-0.06,0.09-0.15,0.16-0.29,0.21c-0.14,0.06-0.33,0.1-0.57,0.13 c-0.24,0.03-0.55,0.04-0.92,0.04c-0.39,0-0.71-0.01-0.96-0.03c-0.25-0.02-0.46-0.06-0.63-0.11S12.11,29.79,12,29.7 s-0.2-0.2-0.29-0.33l-8.16-10.7v10.72c0,0.11-0.03,0.21-0.09,0.29c-0.06,0.08-0.15,0.15-0.28,0.2c-0.13,0.06-0.31,0.1-0.54,0.13 c-0.23,0.03-0.52,0.04-0.88,0.04c-0.34,0-0.63-0.01-0.86-0.04c-0.23-0.03-0.41-0.07-0.55-0.13c-0.14-0.06-0.23-0.12-0.28-0.2 C0.02,29.6,0,29.5,0,29.39V0.69c0-0.11,0.02-0.21,0.08-0.3C0.12,0.3,0.22,0.23,0.35,0.17c0.14-0.06,0.32-0.1,0.55-0.13 C1.13,0.01,1.42,0,1.76,0c0.36,0,0.65,0.01,0.88,0.04c0.23,0.03,0.41,0.07,0.54,0.13S3.4,0.3,3.46,0.39 c0.06,0.09,0.09,0.19,0.09,0.3v17.49l7.3-8.04c0.11-0.14,0.24-0.26,0.37-0.35s0.28-0.17,0.46-0.24c0.18-0.06,0.39-0.11,0.63-0.13 c0.24-0.02,0.54-0.03,0.88-0.03c0.36,0,0.66,0.01,0.9,0.03c0.24,0.02,0.44,0.06,0.59,0.11s0.26,0.11,0.32,0.19s0.1,0.18,0.1,0.31 c0,0.17-0.05,0.34-0.14,0.52c-0.09,0.17-0.25,0.37-0.46,0.6l-7,7l7.86,10.21c0.19,0.24,0.32,0.44,0.4,0.59 C15.84,29.1,15.88,29.24,15.88,29.37z"></path> <path class="st1" d="M29.17,29.93l-2.58,7.11c-0.09,0.23-0.3,0.4-0.66,0.53c-0.35,0.12-0.88,0.18-1.6,0.18 c-0.37,0-0.67-0.02-0.9-0.05c-0.23-0.04-0.41-0.1-0.53-0.18c-0.12-0.09-0.19-0.2-0.2-0.34c-0.01-0.14,0.02-0.32,0.11-0.52 l2.66-6.72c-0.13-0.06-0.25-0.15-0.37-0.28c-0.12-0.13-0.19-0.26-0.24-0.41l-6.9-18.48c-0.12-0.3-0.17-0.54-0.17-0.71 s0.06-0.31,0.17-0.41c0.11-0.1,0.3-0.17,0.56-0.2s0.6-0.05,1.03-0.05s0.77,0.01,1.01,0.03c0.24,0.02,0.44,0.06,0.58,0.12 c0.14,0.06,0.25,0.14,0.31,0.25s0.13,0.25,0.2,0.44l5.52,15.51h0.06l5.33-15.6c0.09-0.27,0.19-0.45,0.31-0.53 c0.12-0.08,0.3-0.14,0.55-0.17c0.24-0.04,0.59-0.05,1.05-0.05c0.4,0,0.73,0.02,0.99,0.05s0.45,0.1,0.57,0.2 c0.12,0.1,0.18,0.24,0.18,0.41s-0.04,0.39-0.13,0.64L29.17,29.93z"></path> <path class="st1" d="M51.15,27.97c0,0.42-0.03,0.75-0.09,0.99C51,29.2,50.92,29.38,50.8,29.5c-0.12,0.11-0.29,0.22-0.52,0.32 c-0.23,0.1-0.49,0.18-0.78,0.25c-0.29,0.06-0.61,0.12-0.93,0.16c-0.33,0.04-0.66,0.06-0.99,0.06c-1,0-1.86-0.13-2.58-0.4 c-0.72-0.26-1.3-0.67-1.76-1.2c-0.46-0.54-0.79-1.22-1-2.04c-0.21-0.82-0.31-1.79-0.31-2.91v-11.3h-2.71 c-0.21,0-0.39-0.11-0.52-0.34s-0.19-0.6-0.19-1.12c0-0.27,0.02-0.5,0.05-0.69c0.04-0.19,0.08-0.34,0.14-0.46 c0.06-0.12,0.13-0.21,0.23-0.26c0.09-0.05,0.2-0.08,0.31-0.08h2.69V4.9c0-0.1,0.02-0.19,0.08-0.28c0.05-0.09,0.14-0.16,0.28-0.23 c0.14-0.06,0.32-0.11,0.55-0.14c0.23-0.03,0.52-0.04,0.86-0.04c0.36,0,0.65,0.01,0.88,0.04c0.23,0.03,0.41,0.08,0.54,0.14 s0.22,0.14,0.28,0.23c0.06,0.09,0.09,0.18,0.09,0.28v4.6h4.96c0.11,0,0.21,0.03,0.3,0.08s0.16,0.14,0.23,0.26s0.11,0.28,0.14,0.46 c0.03,0.19,0.04,0.42,0.04,0.69c0,0.52-0.06,0.89-0.19,1.12s-0.3,0.34-0.52,0.34h-4.96v10.79c0,1.33,0.2,2.34,0.59,3.02 c0.39,0.68,1.1,1.02,2.12,1.02c0.33,0,0.62-0.03,0.88-0.1s0.49-0.13,0.69-0.2c0.2-0.07,0.37-0.14,0.52-0.2 c0.14-0.06,0.27-0.1,0.39-0.1c0.07,0,0.14,0.02,0.2,0.05s0.11,0.1,0.15,0.2c0.04,0.1,0.07,0.24,0.1,0.41 C51.13,27.5,51.15,27.71,51.15,27.97z"></path> <path class="st1" d="M71.38,18.88c0,0.56-0.14,0.96-0.42,1.19s-0.6,0.35-0.96,0.35H57.27c0,1.07,0.11,2.04,0.32,2.9 s0.58,1.6,1.08,2.21c0.5,0.62,1.16,1.09,1.96,1.42c0.81,0.33,1.79,0.49,2.96,0.49c0.92,0,1.74-0.08,2.46-0.23s1.34-0.32,1.87-0.5 s0.96-0.35,1.29-0.5c0.34-0.15,0.59-0.23,0.77-0.23c0.1,0,0.19,0.03,0.27,0.08s0.14,0.12,0.18,0.23s0.08,0.24,0.1,0.42 s0.03,0.4,0.03,0.66c0,0.19-0.01,0.35-0.02,0.48c-0.01,0.14-0.03,0.26-0.05,0.37s-0.06,0.2-0.11,0.29 c-0.05,0.09-0.12,0.17-0.19,0.25c-0.08,0.08-0.31,0.21-0.7,0.39s-0.89,0.35-1.5,0.53c-0.62,0.17-1.33,0.33-2.14,0.46 c-0.81,0.14-1.67,0.2-2.59,0.2c-1.59,0-2.98-0.22-4.18-0.67c-1.2-0.44-2.2-1.1-3.02-1.98s-1.43-1.97-1.85-3.29 c-0.42-1.32-0.62-2.85-0.62-4.6c0-1.66,0.21-3.15,0.64-4.48s1.05-2.45,1.86-3.37c0.81-0.92,1.79-1.63,2.93-2.13 c1.15-0.49,2.43-0.74,3.85-0.74c1.52,0,2.81,0.24,3.88,0.73c1.07,0.49,1.94,1.14,2.63,1.97s1.19,1.79,1.51,2.9 s0.48,2.29,0.48,3.56V18.88z M67.81,17.83c0.04-1.86-0.37-3.32-1.24-4.38c-0.87-1.06-2.17-1.59-3.88-1.59 c-0.88,0-1.65,0.17-2.31,0.49c-0.66,0.33-1.22,0.77-1.67,1.31c-0.45,0.54-0.79,1.18-1.04,1.9s-0.38,1.48-0.41,2.27H67.81z"></path> <path class="st1" d="M92.68,29.39c0,0.11-0.03,0.21-0.09,0.29c-0.06,0.08-0.15,0.15-0.28,0.2c-0.13,0.06-0.31,0.1-0.54,0.13 c-0.23,0.03-0.52,0.04-0.86,0.04c-0.36,0-0.65-0.01-0.88-0.04c-0.23-0.03-0.41-0.07-0.54-0.13c-0.13-0.06-0.22-0.12-0.28-0.2 c-0.06-0.08-0.09-0.18-0.09-0.29V18.07c0-1.1-0.09-1.99-0.26-2.66s-0.42-1.25-0.75-1.74c-0.33-0.49-0.76-0.86-1.28-1.12 c-0.52-0.26-1.13-0.39-1.82-0.39c-0.89,0-1.78,0.32-2.66,0.95c-0.89,0.63-1.82,1.55-2.79,2.77v13.51c0,0.11-0.03,0.21-0.09,0.29 c-0.06,0.08-0.15,0.15-0.28,0.2c-0.13,0.06-0.31,0.1-0.54,0.13c-0.23,0.03-0.52,0.04-0.88,0.04c-0.34,0-0.63-0.01-0.86-0.04 c-0.23-0.03-0.41-0.07-0.55-0.13c-0.14-0.06-0.23-0.12-0.28-0.2c-0.05-0.08-0.08-0.18-0.08-0.29V10.05c0-0.11,0.02-0.21,0.06-0.29 s0.13-0.15,0.26-0.21s0.29-0.11,0.49-0.13c0.2-0.02,0.46-0.03,0.79-0.03c0.31,0,0.58,0.01,0.78,0.03 c0.21,0.02,0.37,0.06,0.48,0.13c0.11,0.06,0.2,0.14,0.25,0.21c0.05,0.08,0.08,0.18,0.08,0.29v2.56c1.09-1.22,2.17-2.11,3.25-2.67 c1.08-0.57,2.17-0.85,3.28-0.85c1.29,0,2.37,0.22,3.25,0.66s1.59,1.02,2.14,1.75c0.54,0.73,0.93,1.59,1.17,2.57 s0.35,2.16,0.35,3.53V29.39z"></path> </g> <rect x="101.56" y="16.14" class="st2" width="7.04" height="7.04"></rect> <rect x="109.31" y="7.14" class="st2" width="7.04" height="7.04"></rect> <rect x="109.13" y="25.14" class="st2" width="7.04" height="7.04"></rect> </g> </svg> 